<?xml version="1.0" encoding="utf-8"?>
<!-- Generator: Adobe Illustrator 25.2.1, SVG Export Plug-In . SVG Version: 6.00 Build 0)  -->
<svg version="1.1" id="레이어_1" xmlns="http://www.w3.org/2000/svg" xmlns:xlink="http://www.w3.org/1999/xlink" x="0px"
	 y="0px" viewBox="0 0 110 70" style="enable-background:new 0 0 110 70;" xml:space="preserve">
<style type="text/css">
	.st0{fill:#49A18E;}
</style>
<path class="st0" d="M85.7,5.5C83,6.6,80.6,8.6,79,11.4l-6.3,11l-4.3,7.5c-3.1,2.1-7.2,2.4-10.6,0.4c-3.5-2-5.4-5.9-4.9-9.8
	c0.4-1,0.7-2,0.8-3c0.4-2.7,0-5.5-1.1-8c-1.2-2.5-3.1-4.8-5.7-6.3c-6.7-3.9-15.3-1.6-19.1,5.1l-21,36.4C2.9,51.4,5.2,60,11.9,63.8
	c2.6,1.5,5.5,2.1,8.3,1.8c4.4-0.4,8.5-2.8,10.8-6.9l6.8-11.8l4.3-7.5c3.1-2.1,7.2-2.4,10.6-0.4c3.5,2,5.3,5.8,5,9.5
	c-0.7,1.4-1.2,2.8-1.4,4.3c-0.2,1.2-0.2,2.5,0,3.7c0.5,4.2,2.9,8.1,6.9,10.4c6.7,3.9,15.3,1.6,19.1-5.1l21-36.4
	c3.9-6.7,1.6-15.3-5.1-19.1C94.2,3.9,89.6,3.8,85.7,5.5z"/>
</svg>
